<?xml version="1.0" standalone="no"?>
<!DOCTYPE svg PUBLIC "-//W3C//DTD SVG 20010904//EN"
 "http://www.w3.org/TR/2001/REC-SVG-20010904/DTD/svg10.dtd">
<svg version="1.0" xmlns="http://www.w3.org/2000/svg"
 width="956.000000pt" height="956.000000pt" viewBox="0 0 956.000000 956.000000"
 preserveAspectRatio="xMidYMid meet">
<metadata>
Created by potrace 1.11, written by Peter Selinger 2001-2013
</metadata>
<g transform="translate(0.000000,956.000000) scale(0.100000,-0.100000)"
fill="#000000" stroke="none">
<path d="M0 4780 l0 -4780 4780 0 4780 0 0 4780 0 4780 -4780 0 -4780 0 0
-4780z m5330 3030 c680 -49 1133 -185 1428 -429 149 -123 267 -348 319 -607
27 -139 25 -484 -5 -621 -86 -396 -308 -707 -651 -910 -168 -100 -369 -174
-558 -207 -47 -9 -88 -17 -90 -19 -2 -2 63 -7 144 -10 405 -17 776 -124 1049
-302 47 -30 127 -96 179 -146 185 -179 288 -374 341 -645 22 -109 24 -411 5
-554 -39 -292 -133 -553 -273 -758 -78 -115 -236 -267 -370 -355 -384 -255
-843 -388 -1513 -438 -237 -18 -888 -15 -1190 6 -197 14 -442 18 -1163 22
l-912 5 2 296 3 296 290 47 c160 26 291 48 293 48 1 1 1 1015 0 2254 l-3 2252
-185 37 c-102 21 -231 48 -288 59 l-102 22 0 318 0 319 852 0 c793 0 1010 5
1543 34 119 6 702 -3 855 -14z"/>
<path d="M4520 7241 c-58 -5 -140 -11 -182 -15 l-78 -8 0 -988 0 -988 78 -8
c42 -4 187 -7 322 -8 223 0 252 2 324 22 242 67 384 241 461 566 33 136 45
239 52 436 11 326 -36 557 -148 725 -144 215 -400 297 -829 266z"/>
<path d="M4475 4549 c-77 -3 -159 -7 -183 -8 l-42 -1 2 -1037 3 -1037 45 -13
c111 -33 245 -47 465 -47 206 0 226 2 317 26 148 40 247 96 343 192 97 98 155
197 206 351 62 185 83 332 83 595 0 237 -12 347 -56 490 -55 178 -175 324
-328 398 -195 94 -391 115 -855 91z"/>
</g>
</svg>
